PathFileType	4	(x/y/z)	S10_P20_T25
DataRate	CameraRate	NumFrames	NumMarkers	Units	OrigDataRate	OrigDataStartFrame	OrigNumFrames
240	240	10	51	mm	240	1	396
Frame#	Time	Sternum			R.Acromium			L.Acromium			Top.Head			R.ASIS			L.ASIS			R.PSIS			L.PSIS			R.Great.Tro			L.Great.Tro			R.Iliac.Crest			L.Iliac.Crest			V.Sacral			R.Thigh.Upper.Post			R.Thigh.Lower.Ant			R.Thigh.Lower.Post			R.Thigh.Upper.Ant			R.Knee.Lat			R.Knee.Med			R.Shank.Upper.Post			R.Shank.Lower.Ant			R.Shank.Lower.Post			R.Shank.Upper.Ant			R.Ankle.Lat			R.Ankle.Med			R.Heel.Upper			R.Heel.Med			R.Heel.Lat			R.Toe.Lat			R.Toe.Med			R.Toe.Tip			L.Thigh.Upper.Post			L.Thigh.Lower.Ant			L.Thigh.Lower.Post			L.Thigh.Upper.Ant			L.Knee.Lat			L.Knee.Med			L.Shank.Upper.Post			L.Shank.Lower.Ant			L.Shank.Lower.Post			L.Shank.Upper.Ant			L.Ankle.Lat			L.Ankle.Med			L.Heel.Upper			L.Heel.Med			L.Heel.Lat			L.Toe.Lat			L.Toe.Med			L.Toe.Tip			Cervical.Spine			Back			
		X1	Y1	Z1	X2	Y2	Z2	X3	Y3	Z3	X4	Y4	Z4	X5	Y5	Z5	X6	Y6	Z6	X7	Y7	Z7	X8	Y8	Z8	X9	Y9	Z9	X10	Y10	Z10	X11	Y11	Z11	X12	Y12	Z12	X13	Y13	Z13	X14	Y14	Z14	X15	Y15	Z15	X16	Y16	Z16	X17	Y17	Z17	X18	Y18	Z18	X19	Y19	Z19	X20	Y20	Z20	X21	Y21	Z21	X22	Y22	Z22	X23	Y23	Z23	X24	Y24	Z24	X25	Y25	Z25	X26	Y26	Z26	X27	Y27	Z27	X28	Y28	Z28	X29	Y29	Z29	X30	Y30	Z30	X31	Y31	Z31	X32	Y32	Z32	X33	Y33	Z33	X34	Y34	Z34	X35	Y35	Z35	X36	Y36	Z36	X37	Y37	Z37	X38	Y38	Z38	X39	Y39	Z39	X40	Y40	Z40	X41	Y41	Z41	X42	Y42	Z42	X43	Y43	Z43	X44	Y44	Z44	X45	Y45	Z45	X46	Y46	Z46	X47	Y47	Z47	X48	Y48	Z48	X49	Y49	Z49	X50	Y50	Z50	X51	Y51	Z51	

1	0	NaN	NaN	NaN	-1407.4	1429.4	472.62	-1471	1449.5	177.45	-1452.9	1742.9	340.94	NaN	NaN	NaN	NaN	NaN	NaN	-1572.2	1019.6	356.43	-1574.7	1029.3	275.77	-1436.2	917.2	504.98	-1439.9	959.95	138.29	-1456.3	1074.4	482.08	-1459.5	1094.6	179.68	-1593.3	989.7	320.51	NaN	NaN	NaN	NaN	NaN	NaN	NaN	NaN	NaN	NaN	NaN	NaN	-1572.9	517.82	431.83	-1580.4	529.6	299.61	-1706.5	322.25	427.15	-1653	243.96	403.55	-1725.9	250.72	415.06	-1629	312.89	415.09	-1737.7	141.29	391.62	-1729	152.37	314.48	NaN	NaN	NaN	-1808	70.342	321.57	NaN	NaN	NaN	-1642	46.452	423.85	-1614.1	47.945	313.97	-1554.1	56.007	354.98	-1390.7	679.77	141.61	-1293.8	626.21	156.75	-1361.8	591.35	161.11	-1318.7	711.22	136.64	-1294.6	524.24	166.48	-1281.5	523.39	297.99	-1281.4	303.42	166.1	-1187.4	245.9	174.4	-1251.6	232.08	175.56	-1217.7	315.56	165.83	-1175.3	122.44	183.72	-1161	140.6	268.32	-1221.1	68.915	230.42	-1199	46.236	264.65	-1202.8	43.38	200	-1033.8	93.634	162.38	NaN	NaN	NaN	-969.53	148.64	220.8	-1518.1	1488.5	350.48	-1602.6	1278.9	358.37
2	0.0041667	NaN	NaN	NaN	-1403	1428.9	472.15	-1465.8	1449.1	176.92	-1448.2	1742.5	340.66	NaN	NaN	NaN	NaN	NaN	NaN	-1567.1	1019.1	355.9	-1569.6	1028.8	275.22	-1431.3	916.82	504.57	-1434.7	959.59	137.95	-1451.3	1074.1	481.59	-1454.4	1094.1	179.17	-1588.1	989.2	319.95	NaN	NaN	NaN	NaN	NaN	NaN	NaN	NaN	NaN	NaN	NaN	NaN	-1568.3	517.44	431.62	-1575.2	529.07	299.43	-1702.8	322.86	427.05	-1650.4	244.49	403.54	-1723.5	251.78	415.22	-1626.1	313.12	414.97	-1736.3	142.49	391.92	-1727.8	153.51	314.75	NaN	NaN	NaN	-1807.4	72.295	321.79	NaN	NaN	NaN	-1641.8	46.418	423.96	-1613.8	48.023	314.1	-1554	55.578	354.95	-1385.2	679.35	141.48	-1288.3	625.84	156.96	-1356.2	590.9	161.15	-1313.1	710.76	136.68	-1289.5	523.76	166.81	-1276.3	523.18	298.06	-1277.3	302.86	166.26	-1183.7	244.72	174.96	-1248	231.38	175.87	-1213.5	314.61	166.37	-1172.3	121.46	184.16	-1158.3	139.38	268.88	-1218.5	68.546	230.69	-1196.8	45.662	264.99	-1200.4	42.869	200.35	-1031.1	91.859	163.4	NaN	NaN	NaN	-966.68	146.47	221.97	-1513.4	1488	349.91	-1597.7	1278.4	357.54
3	0.0083333	NaN	NaN	NaN	-1398.4	1428.3	471.66	-1460.3	1448.7	176.36	-1443.3	1742.1	340.37	NaN	NaN	NaN	NaN	NaN	NaN	-1561.8	1018.6	355.34	-1564.2	1028.3	274.64	-1426.1	916.43	504.13	-1429.4	959.21	137.6	-1446.1	1073.7	481.07	-1448.9	1093.5	178.63	-1582.8	988.68	319.37	NaN	NaN	NaN	NaN	NaN	NaN	NaN	NaN	NaN	NaN	NaN	NaN	-1563.3	517.02	431.39	-1569.8	528.5	299.23	-1699	323.52	426.96	-1647.5	245.06	403.55	-1720.9	252.9	415.39	-1623	313.35	414.84	-1734.9	143.78	392.24	-1726.4	154.72	315.03	NaN	NaN	NaN	-1806.8	74.389	322.01	NaN	NaN	NaN	-1641.5	46.385	424.07	-1613.5	48.105	314.23	-1553.9	55.154	354.93	-1379.6	678.91	141.35	-1282.6	625.45	157.21	-1350.5	590.44	161.19	-1307.4	710.29	136.75	-1284.1	523.27	167.15	-1270.9	522.96	298.15	-1273	302.29	166.44	-1179.8	243.5	175.54	-1244.3	230.66	176.18	-1209.3	313.62	166.94	-1169.3	120.45	184.6	-1155.5	138.1	269.45	-1215.9	68.211	230.97	-1194.7	45.094	265.34	-1198	42.384	200.7	-1028.4	89.953	164.43	-1001.2	112.53	269.12	-963.76	144.1	223.18	-1508.5	1487.5	349.32	-1592.6	1277.9	356.66
4	0.0125	NaN	NaN	NaN	-1393.6	1427.8	471.15	-1454.6	1448.3	175.79	-1438.3	1741.7	340.08	NaN	NaN	NaN	NaN	NaN	NaN	-1556.2	1018.1	354.76	-1558.7	1027.8	274.04	-1420.8	916.04	503.67	-1423.8	958.84	137.23	-1440.7	1073.3	480.52	-1443.3	1093	178.07	-1577.2	988.16	318.76	NaN	NaN	NaN	NaN	NaN	NaN	NaN	NaN	NaN	NaN	NaN	NaN	-1558.1	516.56	431.15	-1564	527.91	299.03	-1695	324.24	426.89	-1644.6	245.65	403.57	-1718.2	254.07	415.58	-1619.7	313.61	414.68	-1733.3	145.14	392.58	-1725	156	315.33	NaN	NaN	NaN	-1806.1	76.627	322.23	NaN	NaN	NaN	-1641.3	46.355	424.18	-1613.1	48.189	314.37	-1553.7	54.739	354.9	-1373.7	678.47	141.23	-1276.6	625.06	157.49	-1344.6	589.97	161.24	-1301.4	709.8	136.83	-1278.5	522.77	167.51	-1265.3	522.72	298.25	-1268.6	301.71	166.64	-1175.9	242.24	176.14	-1240.5	229.91	176.49	-1205	312.6	167.53	-1166.2	119.41	185.05	-1152.7	136.78	270.03	-1213.3	67.925	231.25	-1192.6	44.543	265.68	-1195.7	41.941	201.04	-1025.7	87.919	165.48	-999.43	110.34	270.01	-960.81	141.52	224.42	-1503.4	1487	348.69	-1587.3	1277.3	355.75
5	0.016667	NaN	NaN	NaN	-1388.6	1427.3	470.63	-1448.8	1447.9	175.18	-1433	1741.2	339.77	NaN	NaN	NaN	NaN	NaN	NaN	-1550.5	1017.6	354.16	-1553	1027.3	273.42	-1415.3	915.66	503.18	-1418	958.47	136.85	-1435.2	1073	479.95	-1437.6	1092.5	177.49	-1571.5	987.64	318.14	NaN	NaN	NaN	NaN	NaN	NaN	NaN	NaN	NaN	NaN	NaN	NaN	-1552.6	516.06	430.91	-1558.1	527.3	298.83	-1690.8	325	426.83	-1641.5	246.26	403.6	-1715.2	255.3	415.79	-1616.1	313.87	414.52	-1731.6	146.59	392.93	-1723.5	157.35	315.63	NaN	NaN	NaN	-1805.3	79.013	322.46	NaN	NaN	NaN	-1641	46.329	424.29	-1612.7	48.275	314.52	-1553.5	54.341	354.88	-1367.6	678.03	141.1	-1270.6	624.65	157.81	-1338.5	589.49	161.3	-1295.2	709.31	136.94	-1272.8	522.26	167.89	-1259.7	522.47	298.38	-1264.2	301.13	166.84	-1172	240.94	176.75	-1236.7	229.15	176.79	-1200.6	311.56	168.15	-1163.1	118.37	185.5	-1149.9	135.42	270.62	-1210.8	67.699	231.53	-1190.5	44.019	266.01	-1193.5	41.552	201.38	-1023.1	85.763	166.52	-997.57	107.99	270.92	-957.86	138.73	225.68	-1498.2	1486.5	348.04	-1581.8	1276.8	354.8
6	0.020833	NaN	NaN	NaN	-1383.6	1426.8	470.1	-1442.8	1447.5	174.56	-1427.7	1740.8	339.47	NaN	NaN	NaN	NaN	NaN	NaN	-1544.7	1017.1	353.54	-1547.1	1026.8	272.79	-1409.6	915.29	502.67	-1412.1	958.11	136.45	-1429.5	1072.6	479.37	-1431.7	1092.1	176.9	-1565.6	987.12	317.5	NaN	NaN	NaN	NaN	NaN	NaN	NaN	NaN	NaN	NaN	NaN	NaN	-1546.8	515.52	430.65	-1551.9	526.67	298.62	-1686.4	325.81	426.8	-1638.2	246.9	403.65	-1712.1	256.57	416.02	-1612.4	314.15	414.34	-1729.8	148.12	393.3	-1721.8	158.77	315.95	NaN	NaN	NaN	-1804.4	81.552	322.68	NaN	NaN	NaN	-1640.7	46.31	424.41	-1612.3	48.361	314.68	-1553.3	53.965	354.87	-1361.5	677.58	140.98	-1264.4	624.24	158.17	-1332.4	589	161.36	-1289	708.81	137.07	-1267	521.75	168.29	-1254	522.2	298.53	-1259.8	300.55	167.06	-1168.1	239.63	177.37	-1232.8	228.37	177.07	-1196.1	310.52	168.78	-1160.1	117.32	185.93	-1147.1	134.03	271.2	-1208.3	67.542	231.81	-1188.6	43.533	266.32	-1191.4	41.227	201.69	-1020.5	83.494	167.54	-995.69	105.49	271.83	-954.93	135.73	226.95	-1492.8	1486.1	347.36	-1576.2	1276.3	353.83
7	0.025	NaN	NaN	NaN	-1378.5	1426.3	469.56	-1436.6	1447.2	173.92	-1422.3	1740.5	339.16	NaN	NaN	NaN	NaN	NaN	NaN	-1538.7	1016.6	352.91	-1541.1	1026.4	272.14	-1403.8	914.95	502.15	-1406	957.77	136.03	-1423.6	1072.2	478.76	-1425.7	1091.6	176.29	-1559.6	986.62	316.84	NaN	NaN	NaN	NaN	NaN	NaN	NaN	NaN	NaN	NaN	NaN	NaN	-1540.7	514.93	430.39	-1545.6	526.02	298.41	-1681.8	326.66	426.79	-1634.8	247.56	403.71	-1708.8	257.89	416.27	-1608.4	314.45	414.16	-1727.9	149.73	393.68	-1720.1	160.26	316.27	NaN	NaN	NaN	-1803.4	84.248	322.89	NaN	NaN	NaN	-1640.4	46.302	424.52	-1611.9	48.448	314.84	-1553	53.62	354.86	-1355.2	677.14	140.86	-1258.1	623.83	158.56	-1326.1	588.51	161.44	-1282.6	708.33	137.22	-1261.1	521.24	168.69	-1248.3	521.93	298.7	-1255.3	299.98	167.28	-1164.2	238.31	178.01	-1229	227.6	177.35	-1191.7	309.47	169.43	-1157.1	116.28	186.36	-1144.4	132.62	271.78	-1206	67.46	232.08	-1186.8	43.09	266.62	-1189.4	40.973	202	-1018.1	81.124	168.54	-993.8	102.85	272.74	-952.05	132.53	228.2	-1487.4	1485.6	346.66	-1570.5	1275.7	352.83
8	0.029167	NaN	NaN	NaN	-1373.3	1425.9	469.01	-1430.4	1446.8	173.26	-1416.8	1740.1	338.85	NaN	NaN	NaN	NaN	NaN	NaN	-1532.7	1016.1	352.27	-1535	1025.9	271.48	-1397.9	914.62	501.6	-1399.7	957.45	135.6	-1417.6	1071.9	478.13	-1419.6	1091.2	175.67	-1553.5	986.13	316.17	NaN	NaN	NaN	NaN	NaN	NaN	NaN	NaN	NaN	NaN	NaN	NaN	-1534.3	514.31	430.14	-1539	525.35	298.2	-1677.1	327.56	426.81	-1631.3	248.25	403.8	-1705.3	259.26	416.54	-1604.2	314.76	413.99	-1725.9	151.43	394.06	-1718.1	161.81	316.61	NaN	NaN	NaN	-1802.3	87.109	323.09	NaN	NaN	NaN	-1640.1	46.309	424.63	-1611.4	48.534	315.01	-1552.7	53.31	354.85	-1348.9	676.71	140.74	-1251.8	623.41	158.99	-1319.9	588.03	161.51	-1276.1	707.85	137.41	-1255.1	520.74	169.11	-1242.6	521.63	298.9	-1250.9	299.42	167.52	-1160.3	237	178.64	-1225.1	226.83	177.61	-1187.3	308.42	170.1	-1154.2	115.27	186.77	-1141.8	131.2	272.35	-1203.7	67.454	232.36	-1185.1	42.696	266.91	-1187.5	40.795	202.28	-1015.7	78.671	169.5	-991.92	100.08	273.62	-949.24	129.14	229.42	-1481.9	1485.2	345.94	-1564.8	1275.2	351.8
9	0.033333	NaN	NaN	NaN	-1368.1	1425.5	468.47	-1424	1446.5	172.58	-1411.2	1739.8	338.54	NaN	NaN	NaN	NaN	NaN	NaN	-1526.5	1015.7	351.61	-1528.8	1025.4	270.8	-1391.9	914.31	501.02	-1393.3	957.15	135.16	-1411.6	1071.6	477.49	-1413.4	1090.8	175.03	-1547.3	985.67	315.49	NaN	NaN	NaN	NaN	NaN	NaN	NaN	NaN	NaN	NaN	NaN	NaN	-1527.7	513.63	429.88	-1532.3	524.65	297.99	-1672.1	328.5	426.85	-1627.6	248.97	403.9	-1701.6	260.66	416.83	-1599.8	315.08	413.82	-1723.7	153.23	394.46	-1716	163.43	316.94	NaN	NaN	NaN	-1801.1	90.142	323.28	NaN	NaN	NaN	-1639.8	46.336	424.74	-1610.9	48.617	315.19	-1552.4	53.041	354.85	-1342.5	676.3	140.62	-1245.5	623	159.45	-1313.6	587.56	161.58	-1269.6	707.4	137.62	-1249.1	520.24	169.52	-1236.9	521.32	299.12	-1246.6	298.88	167.77	-1156.4	235.69	179.28	-1221.3	226.07	177.86	-1182.9	307.4	170.77	-1151.5	114.28	187.17	-1139.2	129.79	272.91	-1201.5	67.525	232.63	-1183.5	42.355	267.18	-1185.8	40.694	202.55	-1013.5	76.154	170.41	-990.08	97.2	274.49	-946.51	125.6	230.58	-1476.4	1484.8	345.2	-1559	1274.8	350.76
10	0.0375	NaN	NaN	NaN	-1362.9	1425.1	467.92	-1417.6	1446.3	171.88	-1405.6	1739.6	338.23	NaN	NaN	NaN	NaN	NaN	NaN	-1520.3	1015.3	350.93	-1522.6	1025	270.11	-1385.9	914.03	500.43	-1386.9	956.88	134.71	-1405.5	1071.4	476.83	-1407.2	1090.5	174.38	-1541.1	985.24	314.78	NaN	NaN	NaN	NaN	NaN	NaN	NaN	NaN	NaN	NaN	NaN	NaN	-1520.8	512.91	429.63	-1525.4	523.93	297.79	-1667	329.48	426.93	-1623.7	249.72	404.03	-1697.6	262.11	417.14	-1595.2	315.42	413.66	-1721.4	155.11	394.85	-1713.7	165.12	317.29	NaN	NaN	NaN	-1799.7	93.354	323.45	NaN	NaN	NaN	-1639.4	46.387	424.84	-1610.3	48.697	315.37	-1552.1	52.812	354.85	-1336.2	675.91	140.5	-1239.2	622.58	159.93	-1307.4	587.1	161.65	-1263.1	706.96	137.86	-1243.1	519.76	169.94	-1231.3	521	299.36	-1242.2	298.36	168.03	-1152.7	234.41	179.92	-1217.5	225.33	178.09	-1178.5	306.39	171.45	-1148.8	113.33	187.55	-1136.7	128.4	273.45	-1199.4	67.671	232.91	-1182.1	42.069	267.43	-1184.2	40.67	202.8	-1011.4	73.596	171.26	-988.31	94.23	275.32	-943.87	121.93	231.68	-1470.8	1484.5	344.44	-1553.1	1274.3	349.7
